<?xml version="1.0" standalone="no"?>
<!DOCTYPE svg PUBLIC "-//W3C//DTD SVG 20010904//EN"
 "http://www.w3.org/TR/2001/REC-SVG-20010904/DTD/svg10.dtd">
<svg version="1.0" xmlns="http://www.w3.org/2000/svg"
 width="521.000000pt" height="120.000000pt" viewBox="0 0 521.000000 120.000000"
 preserveAspectRatio="xMidYMid meet">
<metadata>
Created by potrace 1.16, written by Peter Selinger 2001-2019
</metadata>
<g transform="translate(0.000000,120.000000) scale(0.100000,-0.100000)"
fill="#000000" stroke="none">
<path d="M993 665 c-23 -10 -30 -18 -27 -32 4 -13 -14 -44 -53 -94 -82 -105
-95 -119 -110 -119 -18 0 -16 34 7 115 23 81 25 105 8 105 -30 -1 -49 -30 -58
-86 -15 -87 -38 -328 -33 -337 12 -21 33 19 33 64 0 26 5 60 11 76 l11 28 19
-25 c11 -14 40 -53 65 -88 25 -34 53 -62 61 -62 25 0 104 50 97 61 -4 6 -11 6
-19 -1 -8 -6 -28 -10 -46 -8 -29 3 -36 10 -66 67 -18 35 -33 73 -33 84 0 11
30 52 68 91 79 85 126 151 117 165 -8 14 -13 13 -52 -4z"/>
<path d="M1702 638 c-25 -20 -42 -40 -42 -53 0 -11 -6 -29 -13 -40 -8 -11 -24
-53 -37 -93 -14 -41 -32 -78 -42 -83 -28 -15 -40 -46 -27 -67 14 -23 -1 -76
-23 -80 -19 -4 -192 128 -196 150 -3 13 16 27 73 54 98 46 135 78 135 113 0
53 -104 114 -196 115 -80 1 -84 -6 -84 -145 0 -101 -2 -119 -17 -128 -15 -8
-16 -12 -4 -34 9 -18 11 -42 6 -85 -5 -41 -3 -62 5 -67 17 -10 20 -3 27 54 4
38 10 51 22 51 9 0 50 -23 91 -50 41 -27 80 -50 86 -50 6 0 23 -11 38 -25 34
-32 42 -31 49 3 3 15 15 52 26 83 19 51 25 56 68 72 27 9 66 18 88 20 l40 2 0
-87 c0 -52 4 -88 10 -88 6 -1 15 37 21 82 17 119 17 124 16 216 -2 80 -3 84
-36 117 -24 24 -33 40 -29 55 7 28 -7 25 -55 -12z m-289 -55 c36 -11 51 -22
58 -42 9 -23 7 -29 -22 -53 -38 -32 -138 -83 -146 -74 -3 3 -1 31 5 62 13 63
9 78 -19 71 -14 -4 -19 0 -19 17 0 50 35 54 143 19z m341 -55 c17 -23 23 -133
9 -141 -5 -3 -37 -8 -72 -12 l-64 -7 6 24 c4 14 21 55 38 91 34 73 56 84 83
45z"/>
<path d="M1134 642 c-11 -9 -29 -42 -39 -73 -15 -46 -16 -62 -7 -85 8 -20 9
-41 2 -69 -5 -22 -10 -80 -10 -128 0 -84 1 -88 21 -85 19 3 21 11 24 98 4 93
8 119 39 265 9 39 16 76 16 83 0 17 -21 15 -46 -6z"/>
<path d="M2220 629 c-6 -11 -18 -84 -25 -162 -16 -155 -25 -199 -43 -205 -12
-4 -45 62 -102 206 -32 82 -33 84 -16 119 18 37 15 53 -6 35 -7 -5 -26 -12
-43 -14 -24 -2 -31 -8 -32 -28 -4 -35 -32 -197 -54 -314 -26 -132 -8 -149 27
-26 42 151 60 200 70 200 7 0 25 -30 40 -67 42 -98 79 -166 97 -177 10 -7 22
-5 39 6 20 13 28 32 41 100 8 46 18 124 22 173 3 50 9 109 11 133 6 46 -7 57
-26 21z"/>
<path d="M2628 366 c-28 -43 -46 -46 -50 -8 -2 21 -8 27 -27 27 -27 0 -42 -22
-80 -118 -19 -46 -21 -60 -11 -72 18 -22 27 -19 34 13 19 78 49 111 46 50 -3
-50 -1 -58 13 -58 8 0 22 18 32 40 21 47 35 43 35 -10 0 -35 14 -60 26 -47 3
3 13 47 21 97 14 83 14 93 0 107 -14 14 -18 12 -39 -21z"/>
<path d="M3070 318 c-34 -49 -50 -80 -48 -97 4 -34 25 -38 39 -7 16 33 39 34
39 1 0 -27 25 -44 40 -29 5 5 16 41 24 79 12 55 12 75 3 95 -22 45 -42 36 -97
-42z"/>
<path d="M3566 297 c-28 -81 -29 -123 -4 -115 7 3 18 22 24 44 14 51 28 50 32
-3 2 -34 7 -43 21 -43 14 0 22 13 31 48 6 26 18 61 27 79 8 17 13 40 11 49 -6
31 -26 26 -39 -10 -16 -45 -37 -46 -41 -4 -2 20 -9 34 -18 36 -11 2 -23 -22
-44 -81z"/>
<path d="M3770 339 c0 -26 -10 -57 -26 -85 -31 -53 -27 -71 18 -76 45 -5 79
16 106 64 47 80 23 138 -55 138 l-43 0 0 -41z"/>
<path d="M3982 373 c-18 -7 -62 -109 -62 -144 0 -20 8 -34 26 -45 24 -16 27
-16 52 3 61 45 104 173 61 181 -12 2 -20 -10 -28 -44 -14 -56 -38 -104 -51
-104 -13 0 -13 46 1 72 17 31 28 77 21 82 -4 2 -13 1 -20 -1z"/>
<path d="M4465 372 c-15 -3 -27 -23 -48 -89 -25 -74 -27 -88 -14 -100 12 -12
16 -10 27 16 15 37 26 39 36 9 10 -33 24 -48 39 -42 10 4 12 18 8 54 -5 42 -3
49 15 54 24 8 36 38 28 71 -6 23 -43 34 -91 27z"/>
</g>
</svg>
